<svg width="77" height="33" viewBox="0 0 77 33" fill="none" xmlns="http://www.w3.org/2000/svg">
<path d="M11.5 1.5H1.5V31.5H11.5" stroke="#AFA9EC" stroke-width="3" stroke-linecap="round" stroke-linejoin="round"/>
<path d="M65.5 1.5H75.5V31.5H65.5" stroke="#AFA9EC" stroke-width="3" stroke-linecap="round" stroke-linejoin="round"/>
<path d="M27.194 20.632C27.222 20.716 27.236 20.8047 27.236 20.898C27.236 21.0847 27.1707 21.2387 27.04 21.36C26.9187 21.4813 26.774 21.542 26.606 21.542C26.4753 21.542 26.354 21.5047 26.242 21.43C26.1393 21.346 26.0553 21.234 25.99 21.094L25.122 19.036H20.796L19.942 21.108C19.8953 21.248 19.816 21.3553 19.704 21.43C19.6013 21.5047 19.4847 21.542 19.354 21.542C19.158 21.542 19.0087 21.4907 18.906 21.388C18.8033 21.2853 18.752 21.1453 18.752 20.968C18.752 20.9307 18.7613 20.856 18.78 20.744L22.35 12.092C22.4153 11.9427 22.504 11.8307 22.616 11.756C22.7373 11.672 22.8727 11.6393 23.022 11.658C23.162 11.658 23.288 11.6953 23.4 11.77C23.512 11.8447 23.5913 11.952 23.638 12.092L27.194 20.632ZM21.328 17.762H24.59L22.952 13.842L21.328 17.762ZM32.1584 13.996C32.7931 13.996 33.3671 14.1593 33.8804 14.486C34.3938 14.8127 34.7951 15.2653 35.0844 15.844C35.3831 16.4227 35.5324 17.076 35.5324 17.804C35.5324 18.532 35.3831 19.19 35.0844 19.778C34.7951 20.366 34.3938 20.8233 33.8804 21.15C33.3671 21.4767 32.8024 21.64 32.1864 21.64C31.7011 21.64 31.2484 21.5327 30.8284 21.318C30.4084 21.1033 30.0678 20.8373 29.8064 20.52V20.926C29.8064 21.1127 29.7411 21.2713 29.6104 21.402C29.4891 21.5327 29.3304 21.598 29.1344 21.598C28.9478 21.598 28.7891 21.5373 28.6584 21.416C28.5371 21.2853 28.4764 21.122 28.4764 20.926V11.812C28.4764 11.616 28.5371 11.4573 28.6584 11.336C28.7798 11.2053 28.9384 11.14 29.1344 11.14C29.3304 11.14 29.4891 11.2053 29.6104 11.336C29.7411 11.4667 29.8064 11.6253 29.8064 11.812V15.228C30.0304 14.892 30.3571 14.6027 30.7864 14.36C31.2158 14.1173 31.6731 13.996 32.1584 13.996ZM32.0044 20.408C32.4338 20.408 32.8211 20.296 33.1664 20.072C33.5118 19.8387 33.7778 19.526 33.9644 19.134C34.1604 18.7327 34.2584 18.2893 34.2584 17.804C34.2584 17.3187 34.1604 16.88 33.9644 16.488C33.7778 16.096 33.5118 15.788 33.1664 15.564C32.8211 15.34 32.4338 15.228 32.0044 15.228C31.5658 15.228 31.1738 15.34 30.8284 15.564C30.4831 15.788 30.2124 16.096 30.0164 16.488C29.8298 16.8707 29.7364 17.3093 29.7364 17.804C29.7364 18.2987 29.8298 18.742 30.0164 19.134C30.2124 19.526 30.4831 19.8387 30.8284 20.072C31.1738 20.296 31.5658 20.408 32.0044 20.408ZM44.02 17.832C44.02 18.56 43.8567 19.2133 43.53 19.792C43.2034 20.3707 42.7554 20.8233 42.186 21.15C41.626 21.4767 41.0054 21.64 40.324 21.64C39.6427 21.64 39.0174 21.4767 38.448 21.15C37.888 20.8233 37.4447 20.3707 37.118 19.792C36.7914 19.2133 36.628 18.56 36.628 17.832C36.628 17.104 36.7914 16.446 37.118 15.858C37.4447 15.27 37.888 14.8127 38.448 14.486C39.0174 14.1593 39.6427 13.996 40.324 13.996C41.0054 13.996 41.626 14.1593 42.186 14.486C42.7554 14.8127 43.2034 15.27 43.53 15.858C43.8567 16.446 44.02 17.104 44.02 17.832ZM42.69 17.832C42.69 17.328 42.5827 16.88 42.368 16.488C42.1627 16.0867 41.878 15.7787 41.514 15.564C41.1594 15.34 40.7627 15.228 40.324 15.228C39.8854 15.228 39.484 15.34 39.12 15.564C38.7654 15.7787 38.4807 16.0867 38.266 16.488C38.0607 16.88 37.958 17.328 37.958 17.832C37.958 18.3267 38.0607 18.77 38.266 19.162C38.4807 19.554 38.7654 19.862 39.12 20.086C39.484 20.3007 39.8854 20.408 40.324 20.408C40.7627 20.408 41.1594 20.3007 41.514 20.086C41.878 19.862 42.1627 19.554 42.368 19.162C42.5827 18.77 42.69 18.3267 42.69 17.832ZM51.0263 14.164C51.2223 14.164 51.3809 14.2293 51.5023 14.36C51.6329 14.4907 51.6983 14.6493 51.6983 14.836V18.56C51.6983 19.5307 51.4276 20.2867 50.8863 20.828C50.3543 21.36 49.5983 21.626 48.6183 21.626C47.6476 21.626 46.8963 21.36 46.3643 20.828C45.8323 20.2867 45.5663 19.5307 45.5663 18.56V14.836C45.5663 14.6493 45.6269 14.4907 45.7483 14.36C45.8789 14.2293 46.0376 14.164 46.2243 14.164C46.4203 14.164 46.5789 14.2293 46.7003 14.36C46.8309 14.4907 46.8963 14.6493 46.8963 14.836V18.56C46.8963 19.7827 47.4703 20.394 48.6183 20.394C49.1876 20.394 49.6216 20.24 49.9203 19.932C50.2189 19.624 50.3683 19.1667 50.3683 18.56V14.836C50.3683 14.6493 50.4289 14.4907 50.5503 14.36C50.6809 14.2293 50.8396 14.164 51.0263 14.164ZM55.6754 15.466V19.638C55.6754 20.1047 55.8854 20.338 56.3054 20.338C56.3707 20.338 56.4594 20.324 56.5714 20.296C56.6834 20.2587 56.772 20.24 56.8374 20.24C56.9587 20.24 57.0614 20.2913 57.1454 20.394C57.2294 20.4967 57.2714 20.6273 57.2714 20.786C57.2714 20.982 57.1594 21.15 56.9354 21.29C56.7114 21.43 56.4594 21.5 56.1794 21.5C55.8714 21.5 55.5867 21.4673 55.3254 21.402C55.0734 21.3367 54.8447 21.1733 54.6394 20.912C54.4434 20.6413 54.3454 20.2353 54.3454 19.694V15.466H53.5334C53.356 15.466 53.2067 15.41 53.0854 15.298C52.9734 15.1767 52.9174 15.0273 52.9174 14.85C52.9174 14.6727 52.9734 14.528 53.0854 14.416C53.2067 14.304 53.356 14.248 53.5334 14.248H54.3454V13.072C54.3454 12.8853 54.406 12.7267 54.5274 12.596C54.658 12.4653 54.8214 12.4 55.0174 12.4C55.204 12.4 55.358 12.4653 55.4794 12.596C55.61 12.7267 55.6754 12.8853 55.6754 13.072V14.248H56.8374C57.0147 14.248 57.1594 14.3087 57.2714 14.43C57.3927 14.542 57.4534 14.6867 57.4534 14.864C57.4534 15.0413 57.3927 15.186 57.2714 15.298C57.1594 15.41 57.0147 15.466 56.8374 15.466H55.6754Z" fill="#AFA9EC"/>
</svg>
