<?xml version="1.0" encoding="UTF-8"?>
<svg id="Layer_2" data-name="Layer 2" xmlns="http://www.w3.org/2000/svg" viewBox="0 0 53.87 50.51">
  <defs>
    <style>
      .cls-1 {
        fill: #0f1b40;
      }

      .cls-2 {
        font-family: AdelleSansDevanagari-Light, 'Adelle Sans Devanagari';
        font-size: 10.9px;
        font-weight: 300;
      }

      .cls-2, .cls-3, .cls-4, .cls-5 {
        fill: #e8e4e4;
      }

      .cls-6 {
        fill: #fff;
      }

      .cls-3 {
        font-family: MinionConceptRoman-Bold, 'Minion Variable Concept';
        font-size: 12.5px;
        font-variation-settings: 'wght' 700, 'opsz' 11;
        font-weight: 700;
      }

      .cls-4 {
        stroke: #000;
        stroke-miterlimit: 10;
      }

      .cls-7 {
        letter-spacing: 0em;
      }

      .cls-8 {
        letter-spacing: -.01em;
      }

      .cls-9 {
        letter-spacing: .03em;
      }
    </style>
  </defs>
  <g id="Layer_1-2" data-name="Layer 1">
    <path class="cls-4" d="M26.72,15.62v10.41c.73-1.25,1.11-2.98,1.11-5.29,0-2.13-.38-3.84-1.11-5.12Z"/>
    <path class="cls-4" d="M26.72,15.62v10.41c.73-1.25,1.11-2.98,1.11-5.29,0-2.13-.38-3.84-1.11-5.12Z"/>
    <path class="cls-4" d="M26.72,15.62v10.41c.73-1.25,1.11-2.98,1.11-5.29,0-2.13-.38-3.84-1.11-5.12Z"/>
    <path class="cls-1" d="M25.07,0C13.96,0,4.96,9.37,4.96,20.92s7.72,15.23,18.83,15.23,21.4-3.68,21.4-15.23S36.18,0,25.07,0"/>
    <path class="cls-4" d="M31.32,30.89c-.28.02-.57.03-.86.03-.97,0-1.73-.1-2.31-.36-.21-.09-.39-.21-.55-.34-.26-.23-.46-.51-.6-.87-1.02.71-2.28,1.16-3.81,1.32h-.01s-.06-.02-.09-.04c.04-.03.07-.06.1-.09-.07.02-.13.04-.2.06-.24.05-.48.1-.73.14-.14.01-.3.01-.45.01-1.23,0-2.48-.19-3.61-.64-.55-.21-1.07-.49-1.53-.83-1.26-.91-2.19-2.3-2.5-4.3l2.24-.46s.01.03.01.04c.35,1.52.97,2.61,2,3.27h0c.78.51,1.81.78,3.12.79h.11c.73,0,1.4-.08,2.01-.25,1.32-.35,2.36-1.11,3.06-2.34.73-1.25,1.11-2.98,1.11-5.29,0-2.13-.38-3.84-1.11-5.12-.71-1.27-1.75-2.13-3.07-2.57-.66-.23-1.39-.35-2.18-.35-.05-.01-.1-.01-.15-.01-1.22,0-2.17.23-2.91.69-1.1.67-1.71,1.84-1.99,3.47-.03.16-.05.32-.07.49l-2.32-.25c.16-2.43,1.05-4.13,2.47-5.18.41-.32.86-.58,1.35-.78h0c.47-.19.98-.34,1.52-.44.59-.11,1.22-.16,1.89-.16h.02c.76,0,1.48.07,2.16.22,1.25.25,2.36.74,3.31,1.45.05-.63.19-.87.41-1.02.11-.08.26-.16.46-.23.18.03.37.07.54.12-.11-.07-.22-.12-.33-.18.47-.12,1.15-.2,2.1-.2,1.11,0,2.15.09,3.11.29,1.06.22,2.03.58,2.88,1.11,2.76,1.68,4.06,4.59,4.06,8.4,0,5.84-2.94,10.03-8.67,10.4Z"/>
    <path class="cls-4" d="M26.72,15.62v10.41c.73-1.25,1.11-2.98,1.11-5.29,0-2.13-.38-3.84-1.11-5.12Z"/>
    <path class="cls-4" d="M26.72,15.62v10.41c.73-1.25,1.11-2.98,1.11-5.29,0-2.13-.38-3.84-1.11-5.12Z"/>
    <path class="cls-5" d="M16.5,11.91c.06-.42.19-.61.38-.73.13-.11.34-.21.64-.29.42-.11,1.03-.19,1.86-.2.59-.11,1.22-.16,1.89-.16h.02c.76,0,1.48.07,2.16.22,1.25.25,2.36.74,3.31,1.45.05-.63.19-.87.41-1.02.11-.08.26-.16.46-.23.18.03.37.07.54.12-.11-.07-.22-.12-.33-.18h-.01c-1.85-.9-4.2-1.37-7.31-1.41-.18,0-.37,0-.56,0h-9.74v.98c2.74.28,3.16.42,3.16,3.43v13.96c0,2.87-.15,3.12-3.16,3.4v.98h8.2c.72,0,1.42-.02,2.1-.07,2.18-.15,4.11-.55,5.8-1.28.44-.19.87-.4,1.28-.65-.26-.23-.46-.51-.6-.87-1.02.71-2.28,1.16-3.81,1.32h-.01s-.06-.02-.09-.04c.04-.03.07-.06.1-.09-.07.02-.13.04-.2.06-.24.05-.48.1-.73.14-.65.12-1.35.18-2.09.18-.95,0-1.7-.09-2.27-.34-.6-.25-1-.67-1.23-1.3-1.26-.91-2.19-2.3-2.5-4.3l2.24-.46s.01.03.01.04v-7.71c-.03.16-.05.32-.07.49l-2.32-.25c.16-2.43,1.05-4.13,2.47-5.18Z"/>
    <path class="cls-5" d="M23.65,13.05c.02.25.02.52.02.83v13.96c0,.19,0,.36-.01.53,1.32-.35,2.36-1.11,3.06-2.34v-10.41c-.71-1.27-1.75-2.13-3.07-2.57ZM40.48,12.51c-2.17-2.06-5.29-3.04-10.23-3.04h-9.73v.98c.27.03.52.05.75.08h.02c.76,0,1.48.07,2.16.22,1.25.25,2.36.74,3.31,1.45.05-.63.19-.87.41-1.02.11-.08.26-.16.46-.23.06-.02.13-.04.2-.06h.01c.47-.12,1.15-.2,2.1-.2,1.11,0,2.15.09,3.11.29,1.06.22,2.03.58,2.88,1.11,2.76,1.68,4.06,4.59,4.06,8.4,0,5.84-2.94,10.03-8.67,10.4-.28.02-.57.03-.86.03-.97,0-1.73-.1-2.31-.36-.21-.09-.39-.21-.55-.34-.26-.23-.46-.51-.6-.87-1.02.71-2.28,1.16-3.81,1.32h-.01s-.06-.02-.09-.04c-.02.02-.05.04-.07.06-.45.32-1.21.43-2.5.55v.98h8.19c4.31,0,7.71-.77,10.37-2.77,2.69-2.03,4.37-5.35,4.37-9.45,0-3.36-1.26-5.81-2.97-7.49Z"/>
    <g>
      <path class="cls-5" d="M33.05,10.98c-1.98-1.02-4.56-1.51-8.05-1.51h-9.73v.98c1.07.11,1.78.19,2.25.44.13.06.24.14.33.24h0c.47-.19.98-.34,1.52-.44.59-.11,1.22-.16,1.89-.16h.02c.76,0,1.48.07,2.16.22.35-.04.76-.06,1.23-.06,1.05,0,2.04.08,2.95.26.18.03.37.07.54.12-.11-.07-.22-.12-.33-.18.47-.12,1.15-.2,2.1-.2,1.11,0,2.15.09,3.11.29ZM18.42,27.84c.78.5,1.81.77,3.12.78-.05-.31-.08-.66-.08-1.06v-14.42c0-.16,0-.31.01-.44-.05-.01-.1-.01-.15-.01-1.22,0-2.17.23-2.91.69.01.15.01.32.01.5v13.96ZM30.46,30.92c-.97,0-1.73-.1-2.31-.36-.57.15-1.19.26-1.83.31-.36.03-.73.05-1.11.05-.81,0-1.49-.07-2.02-.25h-.01s-.06-.02-.09-.04c-.04,0-.07-.01-.1-.03-.24.05-.48.1-.73.14-.14.01-.3.01-.45.01-1.23,0-2.48-.19-3.61-.64-.06.19-.16.34-.3.47-.42.4-1.2.53-2.63.66v.98h8.19c3.05,0,5.65-.39,7.86-1.33-.28.02-.57.03-.86.03Z"/>
      <path class="cls-1" d="M39.99,20.49c0,5.84-2.94,10.03-8.67,10.4-.28.02-.57.03-.86.03-.97,0-1.73-.1-2.31-.36-.21-.09-.39-.21-.55-.34-.26-.23-.46-.51-.6-.87,2.37-1.64,3.39-4.62,3.39-8.4,0-4.02-1.32-7.02-3.63-8.75.05-.63.19-.87.41-1.02.11-.08.26-.16.46-.23.18-.05.1,0,.13-.02-.02,0-.1,0,.08-.04.47-.12,1.15-.2,2.1-.2,1.11,0,2.15.09,3.11.29,1.06.22,2.03.58,2.88,1.11,2.76,1.68,4.06,4.59,4.06,8.4Z"/>
    </g>
    <g>
      <path class="cls-4" d="M23.19,30.54c-.07.02-.13.04-.2.06-.24.05-.48.1-.73.14.26-.01.51-.02.76-.05.05,0,.1-.01.16-.02-.03,0-.06-.02-.09-.04.04-.03.07-.06.1-.09Z"/>
      <path class="cls-4" d="M30.39,20.95c0,3.78-1.02,6.76-3.39,8.4-1.02.71-2.28,1.16-3.81,1.32h-.01s-.06-.02-.09-.04c.04-.03.07-.06.1-.09-.07.02-.13.04-.2.06-.24.05-.48.1-.73.14-.14.01-.3.01-.45.01-1.23,0-2.48-.19-3.61-.64-.55-.21-1.07-.49-1.53-.83-1.26-.91-2.19-2.3-2.5-4.3l2.24-.46s.01.03.01.04c.35,1.52.97,2.61,2,3.27h0c.78.51,1.81.78,3.12.79h.11c.73,0,1.4-.08,2.01-.25,1.32-.35,2.36-1.11,3.06-2.34.73-1.25,1.11-2.98,1.11-5.29,0-2.13-.38-3.84-1.11-5.12-.71-1.27-1.75-2.13-3.07-2.57-.66-.23-1.39-.35-2.18-.35-.05-.01-.1-.01-.15-.01-1.22,0-2.17.23-2.91.69-1.1.67-1.71,1.84-1.99,3.47-.03.16-.05.32-.07.49l-2.32-.25c.16-2.43,1.05-4.13,2.47-5.18.41-.32.86-.58,1.35-.78h0c.47-.19.98-.34,1.52-.44.59-.11,1.22-.16,1.89-.16h.02c.76,0,1.48.07,2.16.22,1.25.25,2.36.74,3.31,1.45,2.31,1.73,3.63,4.73,3.63,8.75Z"/>
    </g>
    <g>
      <path class="cls-1" d="M31.7,13.17l-1.1-.2"/>
      <path class="cls-1" d="M32.09,11.72l-1.1-.2c-.2-.06-.4-.07-.6-.03-.2,0-.39.07-.56.18-.17.09-.32.22-.42.39-.13.14-.22.31-.27.51l-.05.4c0,.27.07.52.2.76l.23.3c.19.19.41.31.66.39l1.1.2c.2.06.4.07.6.03.2,0,.39-.07.56-.18.17-.09.32-.22.42-.39.13-.14.22-.31.27-.51l.05-.4c0-.27-.07-.52-.2-.76l-.23-.3c-.19-.19-.41-.31-.66-.39h0Z"/>
    </g>
    <g>
      <path class="cls-1" d="M30.22,11.75c-.37-.04-.75.03-1.08.19"/>
      <path class="cls-1" d="M30.22,11.37c-.22-.02-.44,0-.65.03s-.42.11-.62.21c-.04.02-.08.06-.11.1-.03.04-.06.08-.07.13-.02.05-.02.1,0,.15,0,.05.02.1.04.14.05.08.13.15.22.17h.1c.07.01.13,0,.19-.04.03-.01.06-.03.09-.04l-.09.04c.16-.07.34-.12.51-.14h-.1c.16,0,.32-.01.48,0,.05,0,.1,0,.14-.03.05-.02.09-.04.12-.08.07-.07.11-.17.11-.27s-.04-.2-.11-.27l-.08-.06c-.06-.03-.12-.05-.19-.05h0Z"/>
    </g>
    <g>
      <path class="cls-1" d="M27.73,11.82c.53-.13,1.07-.21,1.61-.23"/>
      <path class="cls-1" d="M27.83,12.18c.28-.07.56-.12.85-.16h-.1c.25-.02.51-.04.76-.05.1,0,.19-.04.27-.11.07-.07.11-.17.11-.27s-.04-.2-.11-.27-.17-.11-.27-.11c-.58.02-1.15.1-1.71.24-.09.02-.18.09-.22.17s-.07.2-.04.29c.06.2.26.31.46.26h0Z"/>
    </g>
    <path class="cls-1" d="M29.36,11.96c.48,0,.48-.75,0-.75s-.48.75,0,.75h0Z"/>
    <path class="cls-1" d="M29.38,11.21h-.06c-.05,0-.1,0-.14.03-.05.02-.09.04-.12.08-.04.03-.06.07-.08.12-.02.04-.03.09-.03.14v.1c.03.06.06.12.11.17l.08.06c.06.03.12.05.19.05h.06c.05,0,.1,0,.14-.03.05-.02.09-.04.12-.08.04-.03.06-.07.08-.12.02-.04.03-.09.03-.14v-.1c-.03-.06-.06-.12-.11-.17l-.08-.06c-.06-.03-.12-.05-.19-.05h0Z"/>
    <g>
      <path class="cls-5" d="M29.32,11.58l-.08.04"/>
      <path class="cls-1" d="M29.13,11.25l-.08.04s-.08.06-.11.1c-.03.04-.06.08-.07.13-.02.05-.02.1,0,.15,0,.05.02.1.04.14l.06.08s.1.08.17.1h.1c.07.01.13,0,.19-.04l.08-.04s.08-.06.11-.1c.03-.04.06-.08.07-.13.02-.05.02-.1,0-.15,0-.05-.02-.1-.04-.14l-.06-.08s-.1-.08-.17-.1h-.1c-.07-.01-.13,0-.19.04h0Z"/>
    </g>
    <path class="cls-1" d="M32.54,25.69c1.93,0,1.93-3,0-3s-1.93,3,0,3h0Z"/>
    <g>
      <path class="cls-5" d="M26.34,27.93l.15-.12-.07.05s.02-.03.02-.04c0,0,0,.01-.01.02.17-.13.33-.28.46-.45-.12.16-.26.29-.42.4"/>
      <path class="cls-5" d="M26.6,28.2l.15-.12s.06-.07.08-.12c.02-.04.03-.09.03-.14v-.1s-.05-.09-.08-.13c-.02-.03-.04-.05-.07-.07-.04-.03-.08-.06-.13-.07h-.1c-.07-.01-.13,0-.19.04l-.07.05.51.51s.02-.03.02-.04c.03-.04.04-.09.04-.14.01-.05,0-.1,0-.15-.01-.05-.03-.09-.07-.13-.03-.04-.06-.07-.11-.1l-.09-.04c-.07-.02-.13-.02-.2,0l-.09.04c-.06.03-.1.08-.13.13,0,0,0,.01-.01.02l-.04.09s-.02.1,0,.15c0,.03,0,.07.03.09.02.05.04.09.08.12l.08.06.09.04s.1.02.15,0c.05,0,.1-.02.14-.04.16-.12.31-.24.45-.39.03-.04.06-.07.09-.11l-.59-.45s0,.01-.01.02l.06-.08c-.09.12-.2.23-.32.32l.08-.06s-.05.04-.08.06c-.04.02-.08.06-.11.1-.03.04-.06.08-.07.13-.02.05-.02.1,0,.15,0,.05.02.1.04.14l.06.08s.1.08.17.1h.1c.07.01.13,0,.19-.04.11-.07.21-.15.3-.24s.17-.19.25-.29c.03-.04.04-.09.04-.14.01-.05,0-.1,0-.15l-.04-.09s-.06-.08-.1-.11c-.02-.02-.05-.04-.08-.05-.04-.02-.09-.03-.14-.03h-.1c-.06.03-.12.06-.17.11-.12.15-.25.28-.4.4l.08-.06s-.04.03-.07.05l.51.51s0-.01.01-.02l-.65-.38s-.02.03-.02.04l-.04.09s-.02.1,0,.15c0,.03,0,.07.03.09.02.05.04.09.08.12l.08.06.09.04s.1.02.15,0c.05,0,.1-.02.14-.04l.07-.05-.45-.59-.15.12s-.06.07-.08.12c-.02.04-.03.09-.03.14,0,.05,0,.1.03.14.02.05.04.09.08.12l.08.06c.06.03.12.05.19.05h.1c.06-.03.12-.06.17-.11h0Z"/>
    </g>
    <g>
      <path class="cls-5" d="M26.47,27.86l.03-.03-.07.06"/>
      <path class="cls-5" d="M26.74,28.13l.03-.03-.53-.53-.07.06s-.06.07-.08.12c-.02.04-.03.09-.03.14,0,.05,0,.1.03.14.02.05.04.09.08.12l.08.06c.06.03.12.05.19.05h.1c.06-.03.12-.06.17-.11l.07-.06s.06-.07.08-.12c.02-.04.03-.09.03-.14,0-.05,0-.1-.03-.14-.02-.05-.04-.09-.08-.12l-.08-.06c-.06-.03-.12-.05-.19-.05h-.1c-.06.03-.12.06-.17.11l-.03.03s-.06.07-.08.12c-.02.04-.03.09-.03.14,0,.05,0,.1.03.14.02.05.04.09.08.12l.08.06c.06.03.12.05.19.05h.1c.06-.03.12-.06.17-.11h0Z"/>
    </g>
    <path class="cls-5" d="M26.8,28.21c.48,0,.48-.75,0-.75s-.48.75,0,.75h0Z"/>
    <g>
      <path class="cls-5" d="M26.99,27.28s-.05.07-.09.09c.01-.02.03-.04.05-.06"/>
      <path class="cls-5" d="M26.67,27.09s0,.01-.02.02l.06-.08s-.03.04-.05.05l.08-.06s-.01.01-.02.02l.51.51s0-.01.01-.02l-.06.08s.02-.02.03-.03l-.08.06h0s.08-.06.11-.1c.03-.04.06-.08.07-.13.02-.05.02-.1,0-.15,0-.05-.02-.1-.04-.14l-.06-.08s-.1-.08-.17-.1h-.1c-.07-.01-.13,0-.19.04-.03.02-.07.05-.1.08s-.06.07-.08.11l-.04.09s-.02.1,0,.15c0,.03,0,.07.03.09.02.05.04.09.08.12l.08.06.09.04s.1.02.15,0c.05,0,.1-.02.14-.04.03-.02.07-.05.1-.08,0,0,.02-.01.02-.02s.01-.02.02-.02c.03-.03.05-.07.08-.1.03-.04.04-.09.04-.14.01-.05,0-.1,0-.15-.01-.05-.03-.09-.07-.13-.03-.04-.06-.07-.11-.1l-.09-.04c-.07-.02-.13-.02-.2,0l-.09.04c-.06.03-.1.08-.13.13h0Z"/>
    </g>
    <g>
      <path class="cls-5" d="M26.9,27.38s-.07.07-.1.11"/>
      <path class="cls-5" d="M26.64,27.12s-.04.03-.06.05c-.04.04-.07.09-.1.14-.03.04-.04.09-.04.14-.01.05,0,.1,0,.15.01.05.03.09.07.13.03.04.06.07.11.1l.09.04c.07.02.13.02.2,0l.09-.04c.06-.03.1-.08.13-.13,0-.01.02-.02.02-.03l-.06.08s.05-.06.08-.08c.04-.03.06-.07.08-.12.02-.04.03-.09.03-.14,0-.05,0-.1-.03-.14-.02-.05-.04-.09-.08-.12l-.08-.06c-.06-.03-.12-.05-.19-.05h-.1c-.06.03-.12.06-.17.11h0Z"/>
    </g>
    <g>
      <path class="cls-5" d="M26.56,27.73l.12-.11"/>
      <path class="cls-5" d="M26.82,27.99l.12-.11s.06-.07.08-.12c.02-.04.03-.09.03-.14,0-.05,0-.1-.03-.14-.02-.05-.04-.09-.08-.12l-.08-.06c-.06-.03-.12-.05-.19-.05h-.1c-.06.03-.12.06-.17.11l-.12.11s-.06.07-.08.12c-.02.04-.03.09-.03.14,0,.05,0,.1.03.14.02.05.04.09.08.12l.08.06c.06.03.12.05.19.05h.1c.06-.03.12-.06.17-.11h0Z"/>
    </g>
    <path class="cls-5" d="M26.55,28.09c.48,0,.48-.75,0-.75s-.48.75,0,.75h0Z"/>
    <path class="cls-5" d="M26.63,28.01c.48,0,.48-.75,0-.75s-.48.75,0,.75h0Z"/>
    <path class="cls-5" d="M26.67,28.01c.48,0,.48-.75,0-.75s-.48.75,0,.75h0Z"/>
    <path class="cls-5" d="M26.75,27.91c.48,0,.48-.75,0-.75s-.48.75,0,.75h0Z"/>
    <path class="cls-5" d="M26.98,27.65c.48,0,.48-.75,0-.75s-.48.75,0,.75h0Z"/>
    <g>
      <path class="cls-5" d="M26.83,27.47l-.03.02"/>
      <path class="cls-5" d="M26.57,27.2l-.03.02s-.06.07-.08.12c-.02.04-.03.09-.03.14,0,.05,0,.1.03.14.02.05.04.09.08.12l.08.06c.06.03.12.05.19.05h.1c.06-.03.12-.06.17-.11l.03-.02s.06-.07.08-.12c.02-.04.03-.09.03-.14,0-.05,0-.1-.03-.14-.02-.05-.04-.09-.08-.12l-.08-.06c-.06-.03-.12-.05-.19-.05h-.1c-.06.03-.12.06-.17.11h0Z"/>
    </g>
    <g>
      <path class="cls-5" d="M26.39,13.66l.16.19s-.09-.06-.13-.08c.25.2.48.43.66.7"/>
      <path class="cls-5" d="M26.13,13.92l.16.19.45-.59s-.09-.06-.13-.08c-.04-.03-.09-.04-.14-.04-.05-.01-.1,0-.15,0l-.09.04s-.08.06-.11.1c-.02.02-.04.05-.05.08-.02.04-.03.09-.03.14v.1c.03.06.06.12.11.17.21.17.41.36.57.57l-.06-.08s.06.08.09.12c.02.04.06.08.1.11.04.03.08.06.13.07.05.02.1.02.15,0,.05,0,.1-.02.14-.04.08-.05.15-.13.17-.22v-.1c.01-.07,0-.13-.04-.19-.16-.23-.34-.45-.55-.63-.05-.05-.11-.09-.17-.14l-.45.59s.09.06.13.08c.04.03.09.04.14.04.05.01.1,0,.15,0l.09-.04s.08-.06.11-.1c.02-.02.04-.05.05-.08.02-.04.03-.09.03-.14v-.1c-.03-.06-.06-.12-.11-.17l-.16-.19s-.07-.06-.12-.08c-.04-.02-.09-.03-.14-.03-.05,0-.1,0-.14.03-.05.02-.09.04-.12.08-.07.07-.11.17-.11.27v.1c.03.06.06.12.11.17h0Z"/>
    </g>
    <g>
      <path class="cls-5" d="M25.13,29.26c-1.08.5-2.28.75-3.47.74"/>
      <path class="cls-5" d="M24.95,28.94c-.07.03-.14.06-.2.09.08-.04-.04.02-.06.02-.03.01-.06.02-.09.04-.14.05-.28.1-.42.15-.27.09-.55.16-.83.22-.14.03-.28.06-.42.08-.04,0-.07.01-.11.02-.09.01.06,0-.03,0-.07,0-.15.02-.22.03-.3.03-.6.04-.89.04-.2,0-.38.17-.38.38s.16.37.38.38c1.27.01,2.51-.26,3.66-.79.18-.08.24-.35.13-.51-.12-.18-.32-.22-.51-.13h0Z"/>
    </g>
    <g>
      <path class="cls-5" d="M21.77,29.98c-.77.05-1.56-.08-2.27-.38"/>
      <path class="cls-5" d="M21.77,29.61c-.33.02-.66.01-.99-.03h.1c-.43-.05-.86-.16-1.26-.33l.09.04h-.02c-.1-.05-.18-.08-.29-.05-.09.02-.18.09-.22.17-.05.09-.07.19-.04.29.03.09.09.19.17.22.39.16.79.29,1.2.36s.84.1,1.26.07c.1,0,.19-.04.27-.11.07-.07.11-.17.11-.27,0-.19-.17-.39-.38-.38h0Z"/>
    </g>
    <g>
      <path class="cls-5" d="M19.94,29.77c-.22-.05-.44-.15-.63-.27"/>
      <path class="cls-5" d="M20.04,29.41c-.11-.03-.21-.06-.31-.1l.09.04c-.11-.05-.22-.1-.32-.17-.04-.03-.09-.04-.14-.04-.05-.01-.1,0-.15,0-.05.01-.09.03-.13.07-.04.03-.07.06-.1.11l-.04.09c-.02.07-.02.13,0,.2l.04.09c.03.06.08.1.13.13.1.06.2.12.31.16.14.06.27.11.41.15.05.02.1.02.15,0,.05,0,.1-.02.14-.04.04-.02.08-.06.11-.1.03-.04.06-.08.07-.13v-.1c.01-.07,0-.13-.04-.19l-.06-.08s-.1-.08-.17-.1h0Z"/>
    </g>
    <g>
      <path class="cls-5" d="M16.49,24.14c-.11-2.09-.15-4.18-.12-6.27"/>
      <path d="M16.87,24.14c-.11-2.09-.15-4.18-.12-6.27,0-.48-.74-.48-.75,0-.03,2.09.01,4.18.12,6.27.01.2.17.38.38.38.2,0,.39-.17.38-.38h0Z"/>
    </g>
    <path d="M16.5,24.65c.48,0,.48-.75,0-.75s-.48.75,0,.75h0Z"/>
    <path d="M16.12,24.24v.13c0,.05,0,.1.03.14.02.05.04.09.08.12.03.04.07.06.12.08.04.02.09.03.14.03h.1c.06-.03.12-.06.17-.11l.06-.08c.03-.06.05-.12.05-.19v-.13c0-.05,0-.1-.03-.14-.02-.05-.04-.09-.08-.12-.03-.04-.07-.06-.12-.08-.04-.02-.09-.03-.14-.03h-.1c-.06.03-.12.06-.17.11l-.06.08c-.03.06-.05.12-.05.19h0Z"/>
    <g>
      <path class="cls-5" d="M16.41,17.85l-.04.19"/>
      <path d="M16.04,17.75l-.04.19s-.02.1,0,.15c0,.05.02.1.04.14.02.04.06.08.1.11.04.03.08.06.13.07h.1c.07.01.13,0,.19-.04l.08-.06s.08-.1.1-.17l.04-.19s.02-.1,0-.15c0-.05-.02-.1-.04-.14-.02-.04-.06-.08-.1-.11-.04-.03-.08-.06-.13-.07h-.1c-.07-.01-.13,0-.19.04l-.08.06s-.08.1-.1.17h0Z"/>
    </g>
    <g>
      <path class="cls-5" d="M16.41,17.83l-.02.5"/>
      <path d="M16.04,17.83l-.02.5c0,.05,0,.1.03.14.02.05.04.09.08.12.03.04.07.06.12.08.04.02.09.03.14.03h.1c.06-.03.12-.06.17-.11l.06-.08c.03-.06.05-.12.05-.19l.02-.5c0-.05,0-.1-.03-.14-.02-.05-.04-.09-.08-.12-.03-.04-.07-.06-.12-.08-.04-.02-.09-.03-.14-.03h-.1c-.06.03-.12.06-.17.11l-.06.08c-.03.06-.05.12-.05.19h0Z"/>
    </g>
    <g>
      <path class="cls-5" d="M19.51,29.62l-.11-.05"/>
      <path class="cls-5" d="M19.7,29.3l-.11-.05s-.09-.04-.14-.04c-.05-.01-.1,0-.15,0-.05.01-.09.03-.13.07-.04.03-.07.06-.1.11l-.04.09c-.02.07-.02.13,0,.2l.04.09c.03.06.08.1.13.13l.11.05s.09.04.14.04c.05.01.1,0,.15,0,.05-.01.09-.03.13-.07.04-.03.07-.06.1-.11l.04-.09c.02-.07.02-.13,0-.2l-.04-.09c-.03-.06-.08-.1-.13-.13h0Z"/>
    </g>
    <g>
      <path class="cls-5" d="M42.43,16.19l.04.2"/>
      <path class="cls-5" d="M42.06,16.29l.04.2s.03.09.07.13c.03.04.06.07.11.1.04.03.09.04.14.04.05.01.1,0,.15,0l.09-.04c.06-.03.1-.08.13-.13l.04-.09c.02-.07.02-.13,0-.2l-.04-.2s-.03-.09-.07-.13c-.03-.04-.06-.07-.11-.1-.04-.03-.09-.04-.14-.04-.05-.01-.1,0-.15,0l-.09.04c-.06.03-.1.08-.13.13l-.04.09c-.02.07-.02.13,0,.2h0Z"/>
    </g>
    <g>
      <path class="cls-5" d="M43.01,18.6l-.49-2.12"/>
      <path class="cls-5" d="M43.37,18.5l-.49-2.12c-.04-.19-.27-.32-.46-.26-.2.06-.31.26-.26.46l.49,2.12c.04.19.27.32.46.26.2-.06.31-.26.26-.46h0Z"/>
    </g>
    <g>
      <path class="cls-5" d="M42.5,16.46l-.03-.12"/>
      <path class="cls-5" d="M42.87,16.36l-.03-.12s-.03-.09-.07-.13c-.03-.04-.06-.07-.11-.1-.04-.03-.09-.04-.14-.04-.05-.01-.1,0-.15,0l-.09.04c-.06.03-.1.08-.13.13l-.04.09c-.02.07-.02.13,0,.2l.03.12s.03.09.07.13c.03.04.06.07.11.1.04.03.09.04.14.04.05.01.1,0,.15,0l.09-.04c.06-.03.1-.08.13-.13l.04-.09c.02-.07.02-.13,0-.2h0Z"/>
    </g>
    <g>
      <path class="cls-5" d="M42.28,16.48l-.03-.2"/>
      <path class="cls-5" d="M42.64,16.38l-.03-.2s-.03-.09-.07-.13c-.03-.04-.06-.07-.11-.1-.04-.03-.09-.04-.14-.04-.05-.01-.1,0-.15,0l-.09.04c-.06.03-.1.08-.13.13l-.04.09c-.02.07-.02.13,0,.2l.03.2s.03.09.07.13c.03.04.06.07.11.1.04.03.09.04.14.04.05.01.1,0,.15,0l.09-.04c.06-.03.1-.08.13-.13l.04-.09c.02-.07.02-.13,0-.2h0Z"/>
    </g>
    <path d="M43.01,19.08c.48,0,.48-.75,0-.75s-.48.75,0,.75h0Z"/>
    <g>
      <path class="cls-5" d="M43.02,18.73l-.02-.12"/>
      <path class="cls-5" d="M43.38,18.63l-.02-.12s-.03-.09-.07-.13c-.03-.04-.06-.07-.11-.1-.04-.03-.09-.04-.14-.04-.05-.01-.1,0-.15,0l-.09.04c-.06.03-.1.08-.13.13l-.04.09c-.02.07-.02.13,0,.2l.02.12s.03.09.07.13c.03.04.06.07.11.1.04.03.09.04.14.04.05.01.1,0,.15,0l.09-.04c.06-.03.1-.08.13-.13l.04-.09c.02-.07.02-.13,0-.2h0Z"/>
    </g>
    <g>
      <path class="cls-5" d="M43.75,18.5l.02.24s0-.08,0-.12"/>
      <path class="cls-1" d="M43.38,18.5l.02.24c0,.05,0,.1.03.14.02.05.04.09.08.12.03.04.07.06.12.08.04.02.09.03.14.03h.1c.06-.03.12-.06.17-.11l.06-.08c.03-.06.05-.12.05-.19,0-.04,0-.08,0-.12,0-.05,0-.1-.03-.14-.02-.05-.04-.09-.08-.12-.03-.04-.07-.06-.12-.08-.04-.02-.09-.03-.14-.03h-.1c-.06.03-.12.06-.17.11l-.06.08c-.03.06-.05.12-.05.19,0,.04,0,.08,0,.12h.75l-.02-.24c0-.05,0-.1-.03-.14-.02-.05-.04-.09-.08-.12-.03-.04-.07-.06-.12-.08-.04-.02-.09-.03-.14-.03h-.1c-.06.03-.12.06-.17.11l-.06.08c-.03.06-.05.12-.05.19h0Z"/>
    </g>
    <g>
      <path class="cls-5" d="M43.75,18.55c.02.09.02.18.02.28,0-.03,0-.06.01-.1,0,.02,0,.05,0,.07"/>
      <path class="cls-1" d="M43.39,18.65s0,.03,0,.05v-.1c0,.07,0,.15,0,.23,0,.05,0,.1.03.14.02.05.04.09.08.12.03.04.07.06.12.08.04.02.09.03.14.03h.1c.06-.03.12-.06.17-.11l.06-.08c.03-.06.05-.12.05-.19,0-.03,0-.06.01-.1,0-.05,0-.1-.03-.14-.02-.05-.04-.09-.08-.12-.03-.04-.07-.06-.12-.08-.04-.02-.09-.03-.14-.03h-.1c-.06.03-.12.06-.17.11l-.06.08c-.03.06-.05.12-.05.19,0,.02,0,.05,0,.07,0,.05,0,.1.03.14.02.05.04.09.08.12.03.04.07.06.12.08.04.02.09.03.14.03h.1c.06-.03.12-.06.17-.11l.06-.08c.03-.06.05-.12.05-.19,0-.02,0-.05,0-.07h-.75s0,.06-.01.1h.75s0-.09,0-.14c0-.02,0-.05,0-.07,0-.06-.01-.11-.02-.17-.01-.05-.03-.09-.07-.13-.03-.04-.06-.07-.11-.1-.04-.03-.09-.04-.14-.04-.05-.01-.1,0-.15,0l-.09.04c-.06.03-.1.08-.13.13l-.04.09c-.02.07-.02.13,0,.2h0Z"/>
    </g>
    <path class="cls-1" d="M43.76,19.14c.48,0,.48-.75,0-.75s-.48.75,0,.75h0Z"/>
    <g>
      <path class="cls-5" d="M43.77,18.66s.01.04,0,.06"/>
      <path class="cls-1" d="M43.41,18.56s0,.04,0,.06c0,0,0,.04,0,.05,0,0,0,0,0,0v.1s.01,0,.01,0c0,0,0,.02,0,.03v-.1s-.01,0-.01.01v-.1s.01,0,.01,0c-.02.05-.02.1,0,.15,0,.05.02.1.04.14.02.04.06.08.1.11.04.03.08.06.13.07h.1c.07.01.13,0,.19-.04l.08-.06s.08-.1.1-.17h0s0-.07.01-.1c0,0,0,0,0,0,0-.02,0-.05,0-.05,0-.01,0-.04,0-.06,0,0,0-.02,0-.03v.1s.01,0,.01-.01v.1s-.01,0-.01,0c.02-.05.02-.1,0-.15,0-.05-.02-.1-.04-.14-.02-.04-.06-.08-.1-.11-.04-.03-.08-.06-.13-.07h-.1c-.07-.01-.13,0-.19.04l-.08.06s-.08.1-.1.17h0Z"/>
    </g>
    <g>
      <path class="cls-5" d="M43.6,18.51s.02.02.02.04c0-.01,0-.03,0-.04"/>
      <path class="cls-6" d="M43.48,18.7h0s-.03-.02-.05-.03c0,0,0,0,0,0l-.04-.05s0,0,0,0l-.02-.05s0,0,0,.01v-.06s0,0,0,0l.44-.06s0-.03,0-.04c0-.03-.02-.05-.04-.08-.02-.02-.04-.04-.06-.06-.03-.02-.05-.03-.08-.03-.03,0-.06,0-.09,0l-.05.02s-.06.05-.08.08l-.02.05s-.01.08,0,.12c0,.01,0,.03,0,.04,0,.03.02.05.04.08.02.02.04.04.06.06l.05.02s.06.01.09,0c.02,0,.04,0,.06-.02.03,0,.05-.02.07-.05l.04-.05s.03-.07.03-.11c0,0,0,0,0,0,0-.02,0-.05,0-.06,0-.02-.02-.05-.03-.06-.01-.02-.03-.04-.04-.05,0,0,0,0,0,0-.01-.01-.03-.03-.05-.04-.03-.02-.05-.03-.08-.03-.03,0-.06,0-.09,0-.03,0-.05.02-.08.04-.02.02-.04.04-.06.06l-.02.05s-.01.08,0,.12l.02.05s.05.06.08.08h0Z"/>
    </g>
    <g>
      <path class="cls-5" d="M43.61,18.59v.25c0-.12,0-.24-.02-.36"/>
      <path class="cls-1" d="M43.38,18.59v.25h.46c0-.12-.02-.24-.02-.36,0-.03,0-.06-.02-.09,0-.03-.02-.05-.05-.07-.02-.02-.04-.04-.07-.05-.03-.01-.06-.02-.09-.02h-.06s-.07.04-.1.07l-.04.05s-.03.07-.03.11c0,.12.02.24.02.36,0,.03,0,.06.02.09,0,.03.02.05.05.07.02.02.04.04.07.05.03.01.06.02.09.02h.06s.07-.04.1-.07l.04-.05s.03-.07.03-.11v-.25s-.01-.06-.03-.09c0-.03-.02-.05-.05-.07-.02-.02-.04-.04-.07-.05-.03-.01-.06-.02-.09-.02h-.06s-.07.04-.1.07l-.04.05s-.03.07-.03.11h0Z"/>
    </g>
    <text class="cls-2" transform="translate(26.43 45.12) scale(.92 1)"><tspan x="0" y="0">C</tspan><tspan class="cls-7" x="7.53" y="0">a</tspan><tspan class="cls-8" x="13.31" y="0">t</tspan><tspan x="17.19" y="0">ori</tspan></text>
    <text class="cls-3" transform="translate(0 45.12) scale(.8 1)"><tspan class="cls-9" x="0" y="0">D</tspan><tspan x="9.95" y="0">yani</tspan></text>
  </g>
</svg>